<svg xmlns="http://www.w3.org/2000/svg"  viewBox="0 0 48 48" width="48px" height="48px" baseProfile="basic"><path d="M41,8H7C6.447,8,6,8.448,6,9v32c0,1.654,1.346,3,3,3h30c1.654,0,3-1.346,3-3V9C42,8.448,41.553,8,41,8z"/><path fill="#fff" d="M39,41H9c-1.105,0-2-0.895-2-2V7h34v32C41,40.105,40.105,41,39,41z"/><path d="M39,42H9c-1.654,0-3-1.346-3-3V7c0-0.553,0.447-1,1-1h34c0.553,0,1,0.447,1,1v32C42,40.654,40.654,42,39,42z M8,8v31	c0,0.552,0.448,1,1,1h30c0.552,0,1-0.448,1-1V8H8z"/><rect width="5" height="17" x="12" y="19"/><path d="M14.485,17h-0.028C12.965,17,12,15.888,12,14.499C12,13.08,12.995,12,14.514,12c1.521,0,2.458,1.08,2.486,2.499 C17,15.887,16.035,17,14.485,17z"/><path d="M36,36h-5v-9.099c0-2.198-1.225-3.698-3.192-3.698c-1.501,0-2.313,1.012-2.707,1.99C24.957,25.543,25,26.511,25,27v9h-5V19 h5v2.616C25.721,20.5,26.85,19,29.738,19c3.578,0,6.261,2.25,6.261,7.274L36,36L36,36z"/></svg>