<svg width="34" height="34" viewBox="0 0 34 34" fill="none" xmlns="http://www.w3.org/2000/svg">
<path d="M17 0.333313C18.1506 0.333313 19.0833 1.26605 19.0833 2.41665V14.9167H31.5833C32.7339 14.9167 33.6667 15.8494 33.6667 17C33.6667 18.1506 32.7339 19.0833 31.5833 19.0833H19.0833V31.5833C19.0833 32.7339 18.1506 33.6666 17 33.6666C15.8494 33.6666 14.9167 32.7339 14.9167 31.5833V19.0833H2.41666C1.26607 19.0833 0.333328 18.1506 0.333328 17C0.333328 15.8494 1.26607 14.9167 2.41666 14.9167H14.9167V2.41665C14.9167 1.26605 15.8494 0.333313 17 0.333313Z" fill="#E7E7E7"/>
</svg>
